<?xml version="1.0" encoding="UTF-8" standalone="no"?>
<svg
   xmlns:dc="http://purl.org/dc/elements/1.1/"
   xmlns:cc="http://creativecommons.org/ns#"
   xmlns:rdf="http://www.w3.org/1999/02/22-rdf-syntax-ns#"
   xmlns:svg="http://www.w3.org/2000/svg"
   xmlns="http://www.w3.org/2000/svg"
   id="svg39"
   xml:space="preserve"
   viewBox="0 0 550 445"
   height="445"
   width="550"
   version="1.1"><metadata
     id="metadata43"><rdf:RDF><cc:Work
         rdf:about=""><dc:format>image/svg+xml</dc:format><dc:type
           rdf:resource="http://purl.org/dc/dcmitype/StillImage" /></cc:Work></rdf:RDF></metadata><defs
     id="defs4"><style
       id="style2"
       type="text/css">@import url(&quot;https://fonts.googleapis.com/css2?family=Alex+Brush:wght@400&quot;);</style></defs><defs
     id="defs6" /><g
     id="icon"
     transform="matrix(0.08 0 0 0.08 356.24 222.5)"><g
       id="g28"
       style=""><g
         id="icon_piece"
         transform="matrix(1.33 0 0 1.33 0 -60)"><linearGradient
           y2="360"
           x2="511.9991421202286"
           y1="0"
           x1="0"
           gradientTransform="matrix(1 0 0 1 0 0)"
           gradientUnits="userSpaceOnUse"
           id="SVGID_11"><stop
             id="stop8"
             style="stop-color:rgb(33,33,33);stop-opacity: 1"
             offset="0%" /></linearGradient><path
           id="path11"
           stroke-linecap="round"
           d="m 164.960938 300.003906 h 0.023437 c 0.019531 0 0.039063 -0.003906 0.058594 -0.003906 h 271.957031 c 6.695312 0 12.582031 -4.441406 14.421875 -10.878906 l 60 -210 c 1.292969 -4.527344 0.386719 -9.394532 -2.445313 -13.152344 c -2.835937 -3.757812 -7.269531 -5.96875 -11.976562 -5.96875 h -366.632812 l -10.722657 -48.253906 c -1.527343 -6.863282 -7.613281 -11.746094 -14.644531 -11.746094 h -90 c -8.285156 0 -15 6.714844 -15 15 s 6.714844 15 15 15 h 77.96875 c 1.898438 8.550781 51.3125 230.917969 54.15625 243.710938 c -15.941406 6.929687 -27.125 22.824218 -27.125 41.289062 c 0 24.8125 20.1875 45 45 45 h 272 c 8.285156 0 15 -6.714844 15 -15 s -6.714844 -15 -15 -15 h -272 c -8.269531 0 -15 -6.730469 -15 -15 c 0 -8.257812 6.707031 -14.976562 14.960938 -14.996094 z m 312.152343 -210.003906 l -51.429687 180 h -248.652344 l -40 -180 z m 0 0"
           transform=" translate(-256, -180)"
           style="stroke: none; stroke-width: 1; stroke-dasharray: none; stroke-linecap: butt; stroke-dashoffset: 0; stroke-linejoin: miter; stroke-miterlimit: 4; fill: #ffffff; fill-rule: nonzero; opacity: 1;" /></g><g
         id="g19"
         transform="matrix(1.33 0 0 1.33 -81.33 240)"><linearGradient
           y2="90"
           x2="90"
           y1="0"
           x1="0"
           gradientTransform="matrix(1 0 0 1 150 360)"
           gradientUnits="userSpaceOnUse"
           id="SVGID_12"><stop
             id="stop14"
             style="stop-color:rgb(33,33,33);stop-opacity: 1"
             offset="0%" /></linearGradient><path
           id="path17"
           stroke-linecap="round"
           d="m 150 405 c 0 24.8125 20.1875 45 45 45 s 45 -20.1875 45 -45 s -20.1875 -45 -45 -45 s -45 20.1875 -45 45 z m 45 -15 c 8.269531 0 15 6.730469 15 15 s -6.730469 15 -15 15 s -15 -6.730469 -15 -15 s 6.730469 -15 15 -15 z m 0 0"
           transform=" translate(-195, -405)"
           style="stroke: none; stroke-width: 1; stroke-dasharray: none; stroke-linecap: butt; stroke-dashoffset: 0; stroke-linejoin: miter; stroke-miterlimit: 4; fill: #ffffff; fill-rule: nonzero; opacity: 1;" /></g><g
         id="g26"
         transform="matrix(1.33 0 0 1.33 201.33 240)"><linearGradient
           y2="90"
           x2="90"
           y1="0"
           x1="0"
           gradientTransform="matrix(1 0 0 1 362 360)"
           gradientUnits="userSpaceOnUse"
           id="SVGID_13"><stop
             id="stop21"
             style="stop-color:rgb(33,33,33);stop-opacity: 1"
             offset="0%" /></linearGradient><path
           id="path24"
           stroke-linecap="round"
           d="m 362 405 c 0 24.8125 20.1875 45 45 45 s 45 -20.1875 45 -45 s -20.1875 -45 -45 -45 s -45 20.1875 -45 45 z m 45 -15 c 8.269531 0 15 6.730469 15 15 s -6.730469 15 -15 15 s -15 -6.730469 -15 -15 s 6.730469 -15 15 -15 z m 0 0"
           transform=" translate(-407, -405)"
           style="stroke: none; stroke-width: 1; stroke-dasharray: none; stroke-linecap: butt; stroke-dashoffset: 0; stroke-linejoin: miter; stroke-miterlimit: 4; fill: #ffffff; fill-rule: nonzero; opacity: 1;" /></g></g></g><g
     id="logo-name"
     style=""
     transform="matrix(1.94 0 0 1.94 248.47 223.47)"><linearGradient
       y2="33.89999999999999"
       x2="0"
       y1="0"
       x1="0"
       gradientTransform="matrix(1 0 0 1 -42.07 -16.95)"
       gradientUnits="userSpaceOnUse"
       id="SVGID_9"><stop
         id="stop31"
         style="stop-color:rgb(33,33,33);stop-opacity: 1"
         offset="0%" /></linearGradient><text
       id="text36"
       style="stroke: none; stroke-width: 1; stroke-dasharray: none; stroke-linecap: butt; stroke-dashoffset: 0; stroke-linejoin: miter; stroke-miterlimit: 4; fill: #ffffff; fill-rule: nonzero; opacity: 1; white-space: pre;"
       font-weight="normal"
       font-style="normal"
       font-size="30"
       font-family="Alex Brush"
       xml:space="preserve"><tspan
         id="tspan34"
         y="9.42"
         x="-42.07">E store</tspan></text>
</g></svg>